# xmcd
#
# Track frame offsets:
#	150
#	15722
#	30069
#	43062
#	61062
#	76732
#	97235
#	111090
#	129045
#	145497
#	163384
#	183719
#	198642
#	222197
#	238669
#
# Disc length: 3458 seconds
#
# Revision: 1
# Processed by: cddbd v1.5.2PL0 Copyright (c) Steve Scherf et al.
# Submitted via: audiograbber 1.83.01
#
DISCID=ce0d800f
DTITLE=Various Artist - SC8570
DYEAR=1900
DGENRE=Karaoke
TTITLE0=Toby Keith  - When Love Fades 
TTITLE1=Shania Twain  - Come On Over 
TTITLE2=Alecia Elliott  - I'm Diggin' It 
TTITLE3=Chely Wright  - It Was 
TTITLE4=Leann Rimes  - Big Deal 
TTITLE5=Dixie Chicks  - Goodbye Earl 
TTITLE6=Shana Petrone  - Something Real 
TTITLE7=Kenny Chesney  - She Thinks My Tractor's Sexy (Radio Version)
TTITLE8=Vince Gill  - Loving You Makes Me A Better Man 
TTITLE9=John Berry  -  Power Windows 
TTITLE10=Alabama  -  Small Stuff 
TTITLE11=Alan Jackson  - Pop A Top 
TTITLE12=Tim McGraw  - My Best Friend 
TTITLE13=Steve Holy  - Don't Make Me Beg 
TTITLE14=Paul Brandt  - It's A Beautiful Thing 
EXTD=
EXTT0=
EXTT1=
EXTT2=
EXTT3=
EXTT4=
EXTT5=
EXTT6=
EXTT7=
EXTT8=
EXTT9=
EXTT10=
EXTT11=
EXTT12=
EXTT13=
EXTT14=
PLAYORDER=
